<svg width="20" height="20" viewBox="0 0 20 20" fill="none" xmlns="http://www.w3.org/2000/svg">
<path opacity="0.8" d="M10 6.28711V10.2871L13 13.2871M19 10.2871C19 11.469 18.7672 12.6393 18.3149 13.7313C17.8626 14.8232 17.1997 15.8153 16.364 16.6511C15.5282 17.4868 14.5361 18.1497 13.4442 18.602C12.3522 19.0543 11.1819 19.2871 10 19.2871C8.8181 19.2871 7.64778 19.0543 6.55585 18.602C5.46392 18.1497 4.47177 17.4868 3.63604 16.6511C2.80031 15.8153 2.13738 14.8232 1.68508 13.7313C1.23279 12.6393 1 11.469 1 10.2871C1 7.90016 1.94821 5.61098 3.63604 3.92315C5.32387 2.23532 7.61305 1.28711 10 1.28711C12.3869 1.28711 14.6761 2.23532 16.364 3.92315C18.0518 5.61098 19 7.90016 19 10.2871Z" stroke="#0D0D0D" stroke-linecap="round" stroke-linejoin="round"/>
</svg>
